<?xml version="1.0"?>
<svg width="1131" height="812.20611" xmlns="http://www.w3.org/2000/svg" xmlns:svg="http://www.w3.org/2000/svg" xmlns:xlink="http://www.w3.org/1999/xlink" data-name="Layer 1">
 <title>software engineer</title>

 <g class="layer">
  <title>Layer 1</title>
  <rect fill="#bb3737" height="30.09" id="svg_1" opacity="0.75" width="80.8" x="689.33" y="51.27"/>
  <rect fill="#bb3737" height="30.09" id="svg_2" opacity="0.7" width="80.8" x="823.63"/>
  <rect fill="#bb3737" height="30.09" id="svg_3" opacity="0.7" transform="matrix(1 0 0 1 0 0)" width="80.8" x="829.2" y="93.06"/>
  <rect fill="#bb3737" height="30.09" id="svg_4" opacity="0.8" transform="matrix(1 0 0 1 0 0)" width="80.8" x="570.63" y="127.61"/>
  <rect fill="#bb3737" height="30.09" id="svg_5" opacity="0.7" transform="matrix(1 0 0 1 0 0)" width="80.8" x="545" y="251.32"/>
  <rect fill="#bb3737" height="30.09" id="svg_6" opacity="0.8" transform="matrix(1 0 0 1 0 0)" width="80.8" x="668.04" y="248.53"/>
  <polyline fill="none" id="svg_7" points="823.626 14.856 770.13 65.616 829.198 108.107" stroke="#3f3d56" stroke-miterlimit="10"/>
  <line fill="none" id="svg_8" stroke="#3f3d56" stroke-miterlimit="10" x1="689.33" x2="611.03" y1="65.62" y2="127.61"/>
  <polyline fill="none" id="svg_9" points="585.401 251.297 611.034 157.702 707.439 248.534" stroke="#3f3d56" stroke-miterlimit="10"/>
  <rect fill="#bb3737" height="30.09" id="svg_10" opacity="0.75" transform="matrix(1 0 0 1 0 0)" width="80.8" x="144.33" y="82.27"/>
  <rect fill="#bb3737" height="30.09" id="svg_11" opacity="0.7" transform="matrix(1 0 0 1 0 0)" width="80.8" x="278.63" y="31"/>
  <rect fill="#bb3737" height="30.09" id="svg_12" opacity="0.8" transform="matrix(1 0 0 1 0 0)" width="80.8" x="284.2" y="124.06"/>
  <rect fill="#bb3737" height="30.09" id="svg_13" opacity="0.7" transform="matrix(1 0 0 1 0 0)" width="80.8" x="25.63" y="158.61"/>
  <rect fill="#ffc107" height="30.09" id="svg_14" opacity="0.3" transform="matrix(1 0 0 1 0 0)" width="80.8" y="282.32"/>
  <rect fill="#bb3737" height="30.09" id="svg_15" opacity="0.7" transform="matrix(1 0 0 1 0 0)" width="80.8" x="122.04" y="279.53"/>
  <polyline fill="none" id="svg_16" points="278.626 45.856 225.13 96.616 284.198 139.107" stroke="#3f3d56" stroke-miterlimit="10"/>
  <line fill="none" id="svg_17" stroke="#3f3d56" stroke-miterlimit="10" x1="144.33" x2="66.03" y1="96.62" y2="158.61"/>
  <polyline fill="none" id="svg_18" points="40.401 282.297 66.034 188.702 162.439 279.534" stroke="#3f3d56" stroke-miterlimit="10"/>
  <line fill="none" id="svg_19" stroke="#3f3d56" stroke-miterlimit="10" x1="365" x2="456.63" y1="139.11" y2="139.11"/>
  <rect fill="#bb3737" height="30" id="svg_20" opacity="0.9" transform="matrix(1 0 0 1 0 0)" width="95" x="415.5" y="123.71"/>
  <line fill="none" id="svg_21" stroke="#3f3d56" stroke-miterlimit="10" x1="510.62" x2="570.63" y1="138.71" y2="138.71"/>
  <line fill="none" id="svg_22" stroke="#3f3d56" stroke-miterlimit="10" x1="415.04" x2="359.43" y1="138.71" y2="45.86"/>
  <ellipse cx="691" cy="714.21" fill="#f2f2f2" id="svg_23" rx="440" ry="98"/>
  <polygon fill="#47465a" id="svg_24" points="894.984 391.611 852.078 606.582 842.79 606.582 841.768 604.994 838.809 600.39 875.964 399.572 881.604 397.21 894.984 391.611"/>
  <polygon id="svg_25" opacity="0.1" points="881.604 397.21 841.768 604.994 838.809 600.39 875.964 399.572 881.604 397.21"/>
  <polygon fill="#47465a" id="svg_26" points="959.564 684.432 948.533 687.988 945.852 688.855 942.313 680.893 881.604 403.96 887.916 402.545 901.177 399.572 959.564 684.432"/>
  <polygon id="svg_27" opacity="0.1" points="948.533 687.988 945.852 688.855 942.313 680.893 881.604 403.96 887.916 402.545 948.533 687.988"/>
  <polygon fill="#47465a" id="svg_28" points="433.636 391.611 423.905 670.277 412.753 672.754 411.962 672.931 408.865 667.181 415.058 394.264 421.016 393.415 433.636 391.611"/>
  <polygon id="svg_29" opacity="0.1" points="421.016 393.415 412.753 672.754 411.962 672.931 408.865 667.181 415.058 394.264 421.016 393.415"/>
  <polygon fill="#47465a" id="svg_30" points="491.581 768.917 480.045 770.907 478.753 771.128 475.215 763.609 419.039 399.572 420.658 399.081 429.213 396.476 491.581 768.917"/>
  <polygon id="svg_31" opacity="0.1" points="480.045 770.907 478.753 771.128 475.215 763.609 419.039 399.572 420.658 399.081 480.045 770.907"/>
  <path d="m735.75,369.05l42.95,54.88a13.93,13.93 0 0 0 12.59,5.25l176.31,-20.65a13.93,13.93 0 0 0 12.31,-13.83l0,-40.69l-244.16,15.04z" fill="#7a799c" id="svg_32" transform="matrix(1 0 0 1 0 0)"/>
  <path d="m880.39,377.9l11.94,0a0,0 0 0 1 0,0l0,17.23a4.44,4.44 0 0 1 -4.44,4.44l-3.06,0a4.44,4.44 0 0 1 -4.44,-4.44l0,-17.23a0,0 0 0 1 0,0z" fill="#47465a" id="svg_33"/>
  <path d="m453.54,447.89l42.95,54.88a13.93,13.93 0 0 0 12.59,5.25l176.32,-20.65a13.93,13.93 0 0 0 12.3,-13.83l0,-40.69l-244.16,15.04z" fill="#7a799c" id="svg_34" transform="translate(-34.5 -43.89695)"/>
  <path d="m563.68,412.84l11.94,0a0,0 0 0 1 0,0l0,17.24a4.44,4.44 0 0 1 -4.43,4.44l-3.07,0a4.44,4.44 0 0 1 -4.44,-4.44l0,-17.24a0,0 0 0 1 0,0z" fill="#47465a" id="svg_35"/>
  <path d="m502.88,475.69l524.46,-61.09a7.71,7.71 0 0 0 2.58,-14.55l-93.82,-47.18a108.59,108.59 0 0 0 -59.8,-11.02l-465.94,47.51a8.92,8.92 0 0 0 -5.46,15.09l54.26,55.67a52.67,52.67 0 0 0 43.72,15.57z" fill="#47465a" id="svg_36" transform="translate(-34.5 -43.89695)"/>
  <path d="m1085.04,406.32l-5.61,-3.1s-6.05,4.46 -10.99,23.24s9.22,0.2 9.22,0.2l6.2,-12.83l1.18,-7.51z" fill="#47465a" id="svg_37" transform="translate(-34.5 -43.89695)"/>
  <path d="m1025.03,578.38s-5.75,26.98 -8.41,34.5c-1.3,3.68 -7.58,7.05 -14.54,9.62a97.38,97.38 0 0 1 -19.07,4.98c-7.52,0.88 -103.95,-14.16 -150.84,-24.33c-31.58,-6.85 -35.67,-14.71 -34.97,-19.11a6.38,6.38 0 0 1 1.8,-3.45s46.44,-31.4 62.81,-46.44s48.65,-3.1 84.04,3.09s79.18,41.14 79.18,41.14z" fill="#47465a" id="svg_38" transform="translate(-34.5 -43.89695)"/>
  <path d="m1044.93,359.32s21.68,14.15 -51.31,43.35c0,0 -39.67,22.36 -34.5,114.5a25.27,25.27 0 0 0 3.67,11.7c7.53,12.39 23.67,43.74 -3.23,47.63l0,7.08s48.66,-24.33 53.97,-45.12s23,-136.24 31.85,-146.85s14.59,-27.43 -0.45,-32.29z" fill="#47465a" id="svg_39" transform="matrix(1 0 0 1 0 0)"/>
  <path d="m1002.08,622.5a97.38,97.38 0 0 1 -19.07,4.98c-7.52,0.88 -103.95,-14.16 -150.84,-24.33c-31.58,-6.85 -35.67,-14.71 -34.97,-19.11c20.76,7.1 88.18,29.63 112.38,31.5c28.75,2.21 83.68,8.36 87.84,4.18c1.6,-1.61 3.24,0.08 4.66,2.78z" id="svg_40" opacity="0.1" transform="translate(-34.5 -43.89695)"/>
  <path d="m749.46,806.62l42.02,-191.97s7.52,-20.35 24.77,-19.46l15.92,7.96s-26.54,-6.19 -32.29,14.15s-42.46,189.32 -42.46,189.32l-7.96,0z" fill="#47465a" id="svg_41" transform="translate(-34.5 -43.89695)"/>
  <polygon fill="#47465a" id="svg_42" points="815.808 675.143 832.616 557.926 840.136 557.926 822.885 675.143 815.808 675.143"/>
  <path d="m1011.32,833.6l-15.93,-183.12s0,-15.48 7.96,-23s33.67,-28.97 33.67,-28.97s6.59,-1.55 11.89,13.49s42.02,165.43 42.02,165.43l-7.07,3.09l-45.56,-173.39l-31.41,29.64s-6.19,11.06 -3.09,21.23s14.59,175.6 14.59,175.6l-7.07,0z" fill="#47465a" id="svg_43" transform="translate(-34.5 -43.89695)"/>
  <polygon fill="#47465a" id="svg_44" points="927.717 579.158 967.526 590.658 976.373 582.254 953.372 579.158 927.717 579.158"/>
  <path d="m608.31,300.2l6.46,96.82l141.1,-13.71l-5.61,-94.65a9.52,9.52 0 0 0 -10.31,-8.92l-122.94,10.34a9.52,9.52 0 0 0 -8.7,10.12z" fill="#7a799c" id="svg_45" transform="translate(-34.5 -43.89695)"/>
  <polygon fill="#7a799c" id="svg_46" points="768.7 367.282 628.039 382.627 622.731 383.206 581.595 356.667 581.595 350.916 721.37 338.328 768.7 367.282"/>
  <polygon id="svg_47" opacity="0.1" points="628.039 382.627 622.731 383.206 581.595 356.667 581.595 351.518 628.039 382.627"/>
  <polygon fill="#9493b6" id="svg_48" points="583.364 255.373 588.23 341.627 712.082 330.127 707.658 246.084 583.364 255.373"/>
  <polygon id="svg_49" opacity="0.1" points="657.233 365.513 672.272 375.687 717.832 371.263 702.35 361.532 657.233 365.513"/>
  <polygon fill="#9493b6" id="svg_50" points="595.749 353.128 614.769 367.282 736.41 355.782 714.736 341.627 595.749 353.128"/>
  <path d="m877.03,307.87s12.67,34.31 0,40.64s45.39,0 45.39,0l16.36,-13.19s-36.95,-10.56 -31.67,-34.84s-30.08,7.39 -30.08,7.39z" fill="#fbbebe" id="svg_53" transform="translate(-34.5 -43.89695)"/>
  <path d="m877.03,307.87s12.67,34.31 0,40.64s45.39,0 45.39,0l16.36,-13.19s-36.95,-10.56 -31.67,-34.84s-30.08,7.39 -30.08,7.39z" id="svg_54" opacity="0.1" transform="translate(-34.5 -43.89695)"/>
  <path d="m773.06,651.99s47.5,67.02 39.58,85.5s-3.7,30.08 -19.53,36.41s-20.05,17.95 -6.33,17.42s31.67,-4.22 34.3,-8.97s8.98,-27.45 17.95,-30.61s25.86,-15.31 13.72,-30.09s-42.72,-69.21 -40.36,-74.71s-39.33,5.05 -39.33,5.05z" fill="#fbbebe" id="svg_55" transform="translate(-34.5 -43.89695)"/>
  <path d="m872.28,519.51s-98.17,6.34 -123.5,30.09s22.16,112.41 27.44,113.47s46.45,-3.17 44.86,-14.78s-29.55,-59.11 -29.55,-59.11s36.42,-13.2 56.47,-16.36s42.22,-17.95 42.22,-17.95l-17.94,-35.36z" fill="#9493b6" id="svg_56" transform="translate(-34.5 -43.89695)"/>
  <path d="m827.42,504.73s1.58,58.59 16.36,60.7s0,-44.86 0,-44.86l-0.53,-17.95l-15.83,2.11z" fill="#fbbebe" id="svg_57" transform="translate(-34.5 -43.89695)"/>
  <path d="m872.28,351.15s-27.45,-7.92 -32.72,13.19s-6.86,93.95 -6.86,93.95l-9.5,58.06s17.41,-5.28 21.11,-2.64l22.16,-27.98l5.81,-134.58z" fill="#ffc107" id="svg_58" transform="translate(-34.5 -43.89695)"/>
  <path d="m837.78,307.25s-27.45,-7.92 -32.72,13.19s-6.86,93.95 -6.86,93.95l-9.5,58.06s17.41,-5.28 21.11,-2.64l22.16,-27.98l5.81,-134.58z" fill="#a8a8a8" id="svg_59" opacity="0.95" transform="matrix(1 0 0 1 0 0)"/>
  <path d="m909.78,663.23s18.44,36.26 29.53,35.73s21.64,-7.39 26.91,14.25s-1.05,15.83 5.28,28.5s7.39,34.83 -4.75,40.11s-23.22,5.81 -23.75,0s10.56,-5.81 -2.11,-26.39s-39.58,-58.05 -50.67,-61.75s19.56,-30.45 19.56,-30.45z" fill="#fbbebe" id="svg_60" transform="translate(-34.5 -43.89695)"/>
  <path d="m957.78,497.87s38,63.34 13.19,81.81s-98.69,53.83 -98.69,53.83s39.58,26.92 41.69,35.89s-19,33.25 -26.39,33.78s-29.02,-24.28 -52.25,-30.61s-37.47,-51.72 -12.13,-68.61s49.08,-44.86 49.08,-44.86l-7.39,-40.64l92.89,-20.59z" fill="#9493b6" id="svg_61" transform="translate(-34.5 -43.89695)"/>
  <path d="m890.34,242.76c0,22.45 -22.99,41 -45.44,41a40.64,40.64 0 1 1 0,-81.28c22.45,0 45.44,17.84 45.44,40.28z" fill="#fbbebe" id="svg_62" transform="matrix(1 0 0 1 0 0)"/>
  <path d="m855.2,301.44s36.41,-15.83 36.41,-17.94s21.11,4.75 25.86,8.97s7.39,3.7 10.56,12.14s-15.83,87.08 -15.83,87.08s10.55,60.7 16.36,66.51s-46.97,14.25 -46.97,14.25s-34.84,6.33 -40.64,8.97s-16.37,6.33 -14.25,0s11.08,-11.09 -4.23,-19c0,0 5.28,-25.86 0,-37.48s-29.55,-53.83 -10.02,-84.44s28.5,-41.7 28.5,-41.7s6.86,5.81 14.25,2.64z" fill="#a8a8a8" id="svg_63"/>
  <path d="m901.31,489.43s-41.17,18.26 -53.57,19.95s-49.88,11.19 -29.3,19.63s51.73,-4.22 51.73,-4.22l43.8,-18.47l-12.66,-16.89z" fill="#fbbebe" id="svg_64" transform="translate(-34.5 -43.89695)"/>
  <path d="m945.63,343.72s15.2,-7.35 19.42,18.51s19,107.67 0,119.81s-62.8,31.67 -62.8,31.67s-25.86,-17.42 -13.73,-23.75s41.17,-24.28 45.39,-30.62s8.49,-77.02 1.1,-88.63s10.62,-26.99 10.62,-26.99z" id="svg_65" opacity="0.1" transform="translate(-34.5 -43.89695)"/>
  <path d="m910.09,293.53s21.11,-1.06 25.33,24.8s19,107.67 0,119.81s-62.81,31.67 -62.81,31.67s-25.86,-17.42 -13.72,-23.75s41.17,-24.28 45.39,-30.62s-3.17,-72.3 -10.56,-83.91s16.37,-38 16.37,-38z" fill="#a8a8a8" id="svg_66"/>
  <image height="0" id="svg_69" width="0" x="609" xlink:href="./images/logo.svg" y="141.79"/>
  <image height="0" id="svg_68" width="0" x="475" xlink:href="./images/logo.svg" y="142.79"/>
  <rect fill="#bb3737" height="30.09" id="svg_70" opacity="0.75" transform="matrix(1 0 0 1 0 0)" width="80.8" x="0" y="282.32"/>
  <path d="m860.34,193.7c-13.89,-4.72 -22.99,-1.37 -24.1,-0.6c-1.11,0.77 -7.91,4.02 -11.94,8.79c-4.04,4.77 -9.79,11.28 -10.44,13.3c-0.66,2.01 -4.28,6.28 -0.51,3.48c3.77,-2.8 8.24,4.58 14.59,0.8c6.35,-3.78 10.9,-0.27 14.37,0.91c3.47,1.18 6.28,2.98 11.48,-1.62c5.21,-4.6 8.19,-2.4 11.75,0.26c3.55,2.66 7.05,-3 9.82,0.14c2.77,3.14 7.23,3.17 6.42,-1.46c-0.81,-4.63 -2.66,-4.48 -0.99,-2.9c1.67,1.59 -0.21,-1.08 -0.77,-2.54c-0.56,-1.46 -7.01,-9.36 -8.11,-9.75c-1.1,-0.39 -5.86,-4.74 -6.96,-5.52c-1.1,-0.77 -5.59,-3.37 -6.96,-3.76c-1.37,-0.39 -8.38,-1.33 -17.13,3.81l-1.77,1.94zl19.72,-5.28z" fill="#d82424" id="svg_75"/>
 </g>
</svg>