<svg width="155.000000" height="42.000000" viewBox="0 0 155 42" fill="none" xmlns="http://www.w3.org/2000/svg" xmlns:xlink="http://www.w3.org/1999/xlink">
	<desc>
			Created with Pixso.
	</desc>
	<defs/>
	<path id="Vector" d="M24.0955 18.2175L21.5701 18.2175C21.4124 18.2175 21.2019 18.1125 21.2019 17.9551C21.2019 17.9026 21.2019 17.9026 21.2019 17.8501L21.2019 6.92993C21.2019 5.93262 20.8862 4.93506 20.3076 4.14746C19.6235 3.30762 18.5713 2.88745 17.5193 2.93994C16.9932 2.93994 16.5195 3.04492 16.0461 3.30762C15.6252 3.51758 15.2043 3.83252 14.8887 4.19995C14.573 4.56738 14.3101 4.98755 14.1521 5.45996C13.9944 5.93262 13.8892 6.45752 13.8892 6.92993L13.8892 17.8501C13.8892 18.1125 13.7839 18.27 13.5208 18.27L11.0481 18.27C10.7852 18.27 10.6272 18.165 10.6272 17.9026L10.6272 6.92993C10.6272 5.93262 10.3643 4.93506 9.7854 4.14746C9.20679 3.36011 8.3125 2.93994 7.0498 2.93994C6.52368 2.93994 5.94482 3.04492 5.47144 3.25488C4.94531 3.4126 4.52441 3.72754 4.20874 4.09497C3.89307 4.4624 3.68262 4.93506 3.5249 5.35498C3.36694 5.82739 3.26172 6.35254 3.26172 6.87744L3.26172 17.7976C3.26172 18.0601 3.15649 18.2175 2.89355 18.2175L0.420898 18.2175C0.157715 18.2175 0 18.1125 0 17.8501L0 6.92993C0 5.98511 0.157715 5.09253 0.473389 4.19995C0.789062 3.4126 1.20996 2.67749 1.84131 2.04761C2.42017 1.41748 3.20923 0.892578 3.99829 0.577393C4.94531 0.209961 5.94482 0.0524902 6.99707 0.0524902C7.99683 0.0524902 8.99634 0.262451 9.89062 0.682617C10.6799 1.10254 11.4165 1.62744 11.9951 2.31006C12.1528 2.52002 12.3108 2.52002 12.4685 2.36255C13.0474 1.67993 13.7839 1.15503 14.6257 0.735107C15.5725 0.262451 16.6775 0.0524902 17.7295 0.0524902C18.7292 0.0524902 19.7815 0.209961 20.7283 0.577393C21.5176 0.892578 22.2542 1.36499 22.8328 1.99512C23.4116 2.625 23.8323 3.36011 24.0955 4.14746C24.3584 5.04004 24.5164 5.98511 24.5164 6.87744L24.5164 17.7451C24.4636 18.1125 24.3584 18.2175 24.0955 18.2175ZM51.9788 11.55C51.9788 13.7549 51.3474 15.4351 50.0322 16.6426C48.717 17.8501 46.9807 18.4275 44.7712 18.4275C42.509 18.4275 40.7202 17.8501 39.4575 16.6426C38.1948 15.4351 37.5637 13.7549 37.5637 11.55L37.5637 6.87744C37.5637 4.77759 38.1948 3.09741 39.405 1.88989C40.615 0.682617 42.4038 0.0524902 44.7185 0.0524902C47.0334 0.0524902 48.8223 0.629883 50.0847 1.8374C51.3474 3.04492 51.9788 4.7251 51.9788 6.87744L51.9788 11.55ZM48.717 6.87744C48.7695 5.82739 48.4014 4.77759 47.77 3.98999C47.1387 3.25488 46.1392 2.88745 44.8237 2.83496C43.7717 2.78247 42.7195 3.20239 41.9829 3.9375C41.2463 4.7251 40.8782 5.7749 40.9307 6.82495L40.9307 11.55C40.8782 12.6001 41.1936 13.5974 41.825 14.4375C42.4038 15.1726 43.4033 15.5925 44.8237 15.5925C46.2444 15.5925 47.2439 15.2251 47.8225 14.49C48.4014 13.7024 48.717 12.6526 48.717 11.6025L48.717 6.87744ZM67.8145 0.367432C68.0774 0.367432 68.2354 0.472412 68.2354 0.735107L68.2354 2.67749C68.2354 2.78247 68.2878 2.88745 68.3931 2.93994C68.4983 2.99243 68.6035 2.93994 68.7087 2.78247C69.2349 2.04761 69.8662 1.46997 70.6553 0.945068C71.4971 0.367432 72.4968 0.10498 73.4963 0.10498C73.6541 0.10498 73.8645 0.10498 74.1277 0.10498C74.2854 0.10498 74.4434 0.157471 74.6011 0.209961C74.8115 0.262451 74.9695 0.314941 74.9695 0.419922C75.022 0.524902 75.022 0.682617 74.9695 0.787598L74.4958 3.20239C74.4434 3.4126 74.3906 3.57007 74.2854 3.57007C74.1802 3.62256 74.075 3.62256 73.9697 3.57007C73.6016 3.46509 73.1807 3.46509 72.8125 3.46509C71.2866 3.46509 70.2346 3.88501 69.6033 4.77759C68.9719 5.7749 68.6562 6.92993 68.7087 8.08496L68.7087 17.7976C68.7087 18.0601 68.6035 18.2175 68.3406 18.2175L65.7627 18.2175C65.4995 18.2175 65.3418 18.1125 65.3418 17.8501L65.3418 0.735107C65.3418 0.472412 65.447 0.314941 65.71 0.314941L67.8145 0.367432ZM100.327 9.03003C100.327 9.29248 100.222 9.55493 100.064 9.76489C99.9065 9.92261 99.7488 10.0276 99.5383 10.0276L89.9634 10.0276C89.7529 10.0276 89.595 10.0801 89.4373 10.2375C89.2793 10.395 89.2268 10.5525 89.2268 10.7625L89.2268 11.55C89.2268 12.075 89.2793 12.6001 89.4373 13.125C89.7002 14.1226 90.3843 14.9624 91.3311 15.3301C91.9099 15.54 92.5413 15.645 93.1726 15.645C93.9617 15.645 94.6982 15.4351 95.3821 15.0674C96.0662 14.7 96.6448 14.175 97.0657 13.5449C97.2234 13.2825 97.5391 13.23 97.8022 13.335C97.8547 13.335 97.8547 13.3875 97.9075 13.3875L99.3279 14.385C99.6436 14.595 99.7488 14.8049 99.6436 15.0149C99.0649 16.1699 98.1179 17.0625 96.9604 17.5874C95.803 18.1125 94.5403 18.4275 93.2251 18.375C91.0154 18.375 89.2268 17.7451 87.9116 16.5376C86.5437 15.2776 85.8596 13.4924 85.9124 11.655L85.9124 7.03491C85.9124 6.0376 86.0701 5.09253 86.4385 4.19995C86.7542 3.36011 87.2803 2.57251 87.9116 1.94238C88.5427 1.3125 89.332 0.840088 90.1738 0.524902C91.0681 0.157471 92.0676 0 93.0674 0C94.0669 0 95.0664 0.157471 96.0134 0.524902C96.8552 0.840088 97.6443 1.3125 98.3284 1.94238C98.9597 2.57251 99.4331 3.36011 99.7488 4.19995C100.117 5.09253 100.275 6.09009 100.275 7.03491L100.327 9.03003ZM93.1726 2.88745C91.1206 2.78247 89.4373 4.35742 89.332 6.40503C89.332 6.51001 89.332 6.5625 89.332 6.66748L89.332 6.92993C89.332 7.03491 89.3845 7.19238 89.4373 7.24512C89.5425 7.3501 89.7529 7.40259 89.9106 7.40259L96.6448 7.40259C96.9077 7.40259 97.0657 7.24512 97.0657 6.92993L97.0657 6.5625C97.0657 5.61743 96.75 4.67261 96.0662 3.9375C95.3296 3.20239 94.2246 2.78247 93.1726 2.88745ZM127.369 11.55C127.369 13.7549 126.738 15.4351 125.423 16.6426C124.107 17.8501 122.371 18.4275 120.162 18.4275C117.899 18.4275 116.111 17.8501 114.848 16.6426C113.585 15.4351 112.954 13.7549 112.954 11.55L112.954 6.87744C112.954 4.77759 113.585 3.09741 114.795 1.88989C116.005 0.629883 117.794 0.0524902 120.109 0.0524902C122.424 0.0524902 124.212 0.629883 125.475 1.8374C126.738 3.04492 127.369 4.7251 127.369 6.87744L127.369 11.55ZM124.055 6.87744C124.107 5.82739 123.739 4.83008 123.108 3.98999C122.476 3.25488 121.477 2.83496 120.162 2.83496C119.109 2.78247 118.057 3.20239 117.321 3.9375C116.584 4.7251 116.216 5.7749 116.268 6.82495L116.268 11.55C116.216 12.6001 116.531 13.5974 117.163 14.4375C117.741 15.1726 118.741 15.5925 120.162 15.5925C121.582 15.5925 122.529 15.2251 123.16 14.4375C123.792 13.5974 124.16 12.5476 124.107 11.4976L124.107 6.87744L124.055 6.87744ZM154.621 18.2175L152.096 18.2175C151.938 18.2175 151.728 18.1125 151.728 17.9551C151.728 17.9026 151.728 17.9026 151.728 17.8501L151.728 6.92993C151.78 5.87988 151.412 4.83008 150.728 4.04248C149.939 3.25488 148.887 2.83496 147.782 2.88745C146.729 2.83496 145.677 3.25488 144.888 3.98999C144.152 4.77759 143.783 5.82739 143.836 6.87744L143.836 17.7976C143.889 18.0076 143.731 18.165 143.521 18.2175C143.468 18.2175 143.468 18.2175 143.415 18.2175L140.995 18.2175C140.732 18.2175 140.574 18.1125 140.574 17.8501L140.574 0.735107C140.574 0.472412 140.679 0.314941 140.942 0.314941L143.31 0.314941C143.468 0.314941 143.625 0.419922 143.678 0.577393C143.678 0.629883 143.678 0.629883 143.678 0.682617L143.678 1.3125C143.678 1.57495 143.783 1.67993 143.941 1.67993C144.046 1.62744 144.152 1.57495 144.257 1.52246C145.414 0.577393 146.835 0.0524902 148.361 0.10498C150.412 0.10498 152.043 0.735107 153.201 1.94238C154.411 3.30762 155.095 5.09253 154.99 6.87744L154.99 17.7976C154.99 18.1125 154.884 18.2175 154.621 18.2175Z" fill="#28B0A9" fill-opacity="1.000000" fill-rule="nonzero"/>
	<path id="Vector" d="M21.886 41.5273C21.9385 41.7373 21.7808 41.9475 21.5703 41.9475C21.5176 41.9475 21.5176 41.9475 21.4651 41.9475L19.729 41.9475C19.5186 42 19.3081 41.8423 19.3081 41.6323C19.3081 41.5798 19.3081 41.5798 19.3081 41.5273L19.3081 31.1323C19.2554 30.9224 19.4133 30.7124 19.6238 30.7124C19.6763 30.7124 19.6763 30.7124 19.729 30.7124L26.1475 30.7124C26.2527 30.7124 26.3579 30.7649 26.4104 30.8174C26.5156 30.9224 26.5156 31.0273 26.5156 31.1323L26.5156 32.6023C26.5156 32.865 26.4104 33.0225 26.1475 33.0225L22.2542 33.0225C22.0964 33.0225 21.9912 33.075 21.9385 33.1274C21.886 33.1799 21.886 33.2849 21.886 33.3374L21.886 34.7549C21.886 34.8599 21.886 34.9648 21.9385 35.0173C21.9912 35.0698 22.0964 35.1223 22.2542 35.1223L25.3582 35.1223C25.5686 35.1223 25.7266 35.2273 25.7791 35.4375C25.7791 35.49 25.7791 35.49 25.7791 35.5425L25.7791 37.0125C25.7791 37.3274 25.6738 37.4324 25.3582 37.4324L22.2542 37.4324C22.1489 37.4324 22.0437 37.4324 21.9385 37.5374C21.886 37.6423 21.8333 37.7473 21.8333 37.9048L21.886 41.5273Z" fill="#FFFFFF" fill-opacity="1.000000" fill-rule="nonzero"/>
	<path id="Vector" d="M37.9844 41.9475C37.6687 41.9475 37.5635 41.8423 37.5635 41.5798L37.5635 31.0798C37.5635 30.8174 37.7212 30.7124 37.9844 30.7124L39.7205 30.7124C39.8257 30.7124 39.9309 30.7124 40.0361 30.8174C40.1414 30.8699 40.1941 31.0273 40.1414 31.1323L40.1414 41.6323C40.1414 41.895 39.9836 42 39.7205 42L37.9844 42L37.9844 41.9475Z" fill="#FFFFFF" fill-opacity="1.000000" fill-rule="nonzero"/>
	<path id="Vector" d="M58.9761 32.9175C58.9233 33.0225 58.8181 33.0225 58.7129 33.0225L56.8191 33.0225C56.7139 33.0225 56.5559 33.0225 56.5034 33.1274C56.4507 33.1799 56.4507 33.2849 56.4507 33.3899L56.3982 41.6323C56.3982 41.8948 56.2402 42 55.9246 42L54.1885 42C54.0833 42 53.978 42 53.8728 41.8948C53.7676 41.8423 53.7151 41.7373 53.7676 41.6323L53.7676 33.3899C53.7676 33.2849 53.7676 33.2324 53.7151 33.1274C53.6624 33.075 53.5571 33.0225 53.3994 33.0225L51.7158 33.0225C51.6106 33.0225 51.5054 32.97 51.4001 32.9175C51.3474 32.8125 51.2949 32.7073 51.2949 32.6023L51.2949 31.1848C51.2949 31.0798 51.2949 30.9749 51.4001 30.8699C51.4526 30.7649 51.6106 30.7649 51.7158 30.7649L58.7129 30.7649C58.9233 30.7649 59.0813 30.9224 59.0813 31.1848L59.0813 32.6023C59.0286 32.7073 58.9761 32.8125 58.9761 32.9175Z" fill="#FFFFFF" fill-opacity="1.000000" fill-rule="nonzero"/>
	<path id="Vector" d="M77.9158 41.9475L76.7583 41.9475C76.6531 41.9475 76.4951 41.9475 76.3899 41.9475C76.2847 41.9475 76.1797 41.8423 76.0745 41.6848L72.7073 36.2773C72.7073 36.2773 72.7073 36.2249 72.6548 36.2773L72.6548 36.3298L72.6548 41.6323C72.6548 41.7373 72.6021 41.8423 72.5496 41.895C72.4443 41.9475 72.3391 41.9475 72.1812 41.9475L70.6028 41.9475C70.4976 41.9475 70.3926 41.9475 70.2874 41.895C70.1821 41.8423 70.1294 41.7373 70.1821 41.6323L70.1821 31.1323C70.1821 30.8699 70.3398 30.7124 70.6555 30.7124L71.8655 30.7124C72.0234 30.7124 72.1287 30.7124 72.2864 30.7649C72.3916 30.8699 72.4968 30.9749 72.5496 31.0798L75.8113 36.4873C75.8113 36.5398 75.864 36.5398 75.864 36.5398L75.9165 36.4873L75.9165 31.0798C75.9165 30.8174 76.0745 30.7124 76.3899 30.7124L77.9683 30.7124C78.0735 30.7124 78.1787 30.7124 78.2839 30.8174C78.3892 30.8699 78.4419 31.0273 78.3892 31.1323L78.3892 41.5798C78.3892 41.8423 78.2314 41.9475 77.9158 41.9475Z" fill="#FFFFFF" fill-opacity="1.000000" fill-rule="nonzero"/>
	<path id="Vector" d="M97.0659 39.6375C97.3289 39.6375 97.4341 39.7949 97.4341 40.0574L97.4341 41.5273C97.4341 41.8423 97.3289 41.9475 97.0659 41.9475L90.6475 41.9475C90.437 42 90.2266 41.8423 90.2266 41.6323C90.2266 41.5798 90.2266 41.5798 90.2266 41.5273L90.2266 31.1323C90.1738 30.9224 90.3318 30.7124 90.5422 30.7124C90.5947 30.7124 90.5947 30.7124 90.6475 30.7124L96.908 30.7124C97.1711 30.7124 97.2764 30.8174 97.2764 31.1323L97.2764 32.6023C97.2764 32.865 97.1711 33.0225 96.908 33.0225L93.2253 33.0225C93.1201 33.0225 92.9622 33.0225 92.8569 33.1274C92.8044 33.1799 92.7517 33.2849 92.8044 33.3899L92.8044 34.6499C92.8044 34.7549 92.8044 34.9124 92.9097 35.0173C93.0149 35.1223 93.1201 35.1223 93.2778 35.1223L96.3293 35.1223C96.4346 35.1223 96.5398 35.1748 96.645 35.2273C96.6975 35.3325 96.7502 35.4375 96.7502 35.5425L96.7502 36.96C96.7502 37.0649 96.7502 37.1699 96.645 37.2749C96.5923 37.3799 96.4346 37.4324 96.3293 37.3799L93.2253 37.3799C93.0674 37.3799 92.9622 37.4324 92.9097 37.4849C92.8569 37.5898 92.8044 37.6948 92.8569 37.7998L92.8569 39.27C92.8569 39.4275 92.9097 39.5325 92.9622 39.585C93.0674 39.6375 93.2253 39.6899 93.3831 39.6375L97.0659 39.6375Z" fill="#FFFFFF" fill-opacity="1.000000" fill-rule="nonzero"/>
	<path id="Vector" d="M116.584 38.5874C116.636 39.585 116.163 40.53 115.427 41.1599C115.058 41.4749 114.637 41.6851 114.164 41.79C113.69 41.9475 113.164 42 112.638 42C111.954 42 111.27 41.895 110.639 41.6851C109.902 41.4749 109.271 41.1074 108.692 40.635C108.535 40.53 108.429 40.425 108.377 40.2673C108.324 40.1624 108.429 40.0049 108.587 39.7949L109.324 38.7974C109.481 38.5874 109.639 38.5349 109.745 38.5349C109.902 38.5874 110.008 38.6399 110.113 38.6924C110.323 38.8499 110.534 38.9548 110.744 39.0601C110.955 39.165 111.218 39.27 111.428 39.375C111.639 39.48 111.849 39.5325 112.112 39.585C112.27 39.6375 112.48 39.6375 112.638 39.6375C112.901 39.6375 113.164 39.6375 113.375 39.5325C113.532 39.48 113.69 39.4275 113.796 39.3225C113.901 39.2175 113.953 39.1125 114.006 39.0076C114.059 38.9023 114.059 38.7974 114.059 38.6924C114.059 38.2725 113.743 37.8525 113.375 37.6951C112.743 37.3799 112.112 37.1174 111.428 36.9075C111.113 36.8025 110.744 36.645 110.428 36.4875C110.113 36.3298 109.85 36.1199 109.639 35.8574C109.429 35.595 109.219 35.28 109.113 34.9648C108.955 34.5974 108.903 34.1775 108.903 33.8101C108.903 33.3374 109.008 32.865 109.219 32.4451C109.429 32.0249 109.692 31.71 110.008 31.395C110.376 31.0798 110.744 30.8699 111.218 30.7124C111.691 30.5549 112.165 30.45 112.691 30.45C113.322 30.45 114.006 30.5024 114.637 30.7124C115.111 30.8699 115.532 31.0273 115.9 31.29C116.005 31.3425 116.11 31.4475 116.163 31.5525C116.163 31.6575 116.163 31.7625 116.005 32.0249L115.479 33.075C115.427 33.2849 115.163 33.4424 114.9 33.3374C114.848 33.3374 114.848 33.3374 114.848 33.2849C114.585 33.1799 114.217 33.0225 113.848 32.9175C113.48 32.8125 113.112 32.7075 112.743 32.7075C112.428 32.7075 112.165 32.76 111.902 32.9175C111.638 33.075 111.481 33.3899 111.533 33.7048C111.533 33.915 111.586 34.0725 111.744 34.23C111.849 34.3875 112.007 34.4924 112.165 34.5974C112.323 34.7024 112.533 34.7549 112.691 34.8599L113.164 35.0173L114.374 35.4375C114.795 35.595 115.163 35.8049 115.532 36.0674C115.9 36.3298 116.216 36.645 116.479 37.0125C116.531 37.5898 116.636 38.115 116.584 38.5874Z" fill="#FFFFFF" fill-opacity="1.000000" fill-rule="nonzero"/>
	<path id="Vector" d="M135.681 38.5874C135.681 39.1125 135.576 39.6375 135.366 40.0574C135.155 40.4775 134.892 40.845 134.524 41.1074C134.156 41.4224 133.735 41.6323 133.261 41.7375C132.788 41.895 132.262 41.9475 131.736 41.9475C131.052 41.9475 130.368 41.8425 129.684 41.6323C128.947 41.4224 128.316 41.0549 127.737 40.5825C127.579 40.4775 127.474 40.3723 127.422 40.2148C127.422 40.0574 127.474 39.8999 127.632 39.7424L128.369 38.9023C128.526 38.6924 128.684 38.6399 128.79 38.6399C128.947 38.6924 129.052 38.7449 129.158 38.7974C129.368 38.9548 129.579 39.0598 129.789 39.165C130 39.27 130.263 39.375 130.473 39.48C130.683 39.585 130.894 39.6375 131.157 39.6899C131.315 39.7424 131.525 39.7424 131.683 39.7424C131.946 39.7424 132.156 39.7424 132.42 39.6375C132.577 39.585 132.735 39.5325 132.841 39.4275C132.946 39.3225 132.998 39.2175 133.051 39.1125C133.051 39.0073 133.104 38.9023 133.104 38.7974C133.104 38.3774 132.788 37.9575 132.42 37.8C131.788 37.4849 131.157 37.2224 130.473 37.0125C130.157 36.9075 129.789 36.75 129.473 36.5925C129.158 36.4348 128.895 36.2249 128.632 35.9624C128.421 35.7 128.211 35.385 128.105 35.0698C127.948 34.7024 127.895 34.2825 127.895 33.915C127.895 33.4424 128 32.97 128.211 32.55C128.421 32.1299 128.684 31.8149 129.052 31.5C129.421 31.1848 129.789 30.9749 130.263 30.8174C130.736 30.6599 131.209 30.5549 131.736 30.5549C132.367 30.5549 133.051 30.6074 133.682 30.8174C134.156 30.9224 134.577 31.1323 134.998 31.395C135.103 31.4475 135.208 31.5525 135.26 31.6575C135.313 31.7625 135.26 31.8674 135.103 32.1299L134.577 33.1799C134.524 33.3899 134.261 33.5474 133.998 33.4424C133.945 33.4424 133.945 33.4424 133.945 33.3899C133.63 33.2324 133.261 33.1274 132.946 33.0225C132.577 32.9175 132.209 32.8125 131.841 32.8125C131.525 32.8125 131.262 32.865 130.999 33.0225C130.736 33.1799 130.578 33.4949 130.631 33.8098C130.631 34.02 130.683 34.1775 130.841 34.335C130.947 34.4924 131.104 34.5974 131.262 34.7024C131.42 34.8074 131.63 34.8599 131.788 34.9648L132.262 35.1223L133.472 35.5425C133.893 35.7 134.261 35.9099 134.629 36.1724C134.998 36.4348 135.26 36.75 135.524 37.1174C135.576 37.5898 135.734 38.115 135.681 38.5874Z" fill="#FFFFFF" fill-opacity="1.000000" fill-rule="nonzero"/>
</svg>
