<svg width="21.984863" height="19.994141" viewBox="0 0 21.9849 19.9941" fill="none" xmlns="http://www.w3.org/2000/svg" xmlns:xlink="http://www.w3.org/1999/xlink">
	<desc>
			Created with Pixso.
	</desc>
	<defs/>
	<path id="path" d="M20.68 0C20.44 0.01 20.2 0.07 19.99 0.16C19.78 0.25 18.56 0.77 16.76 1.53C14.96 2.3 12.62 3.31 10.3 4.3C5.67 6.28 1.11 8.24 1.11 8.24C1.11 8.24 0.87 8.32 0.59 8.51C0.45 8.61 0.3 8.73 0.18 8.92C0.06 9.1 -0.03 9.36 0 9.63C0.12 10.6 1.12 10.87 1.12 10.87L5.57 12.39C5.69 12.77 6.92 16.9 7.2 17.77C7.35 18.26 7.49 18.54 7.63 18.73C7.71 18.82 7.78 18.89 7.87 18.95C7.9 18.97 7.94 18.99 7.97 19C7.99 19.01 8.03 19.02 8.05 19.02C8.56 19.2 8.98 18.87 8.98 18.87L11.73 16.32L16.17 19.78L16.22 19.81C17 20.15 17.7 19.96 18.09 19.64C18.48 19.33 18.63 18.92 18.63 18.92L21.91 1.88C21.99 1.5 22.01 1.17 21.93 0.87C21.85 0.58 21.66 0.32 21.42 0.18C21.18 0.03 20.93 -0.01 20.68 0ZM20.71 1.01C20.81 1.01 20.88 1.02 20.9 1.03C20.93 1.05 20.94 1.05 20.96 1.13C20.98 1.21 20.99 1.39 20.93 1.67L17.69 18.57C17.68 18.58 17.61 18.74 17.46 18.87C17.3 18.99 17.13 19.09 16.66 18.9L11.81 15.12L11.67 15.01L10.22 13.92L18.38 4.33C18.52 4.16 18.54 3.98 18.45 3.79C18.35 3.59 18.2 3.5 17.98 3.5C17.89 3.51 17.8 3.53 17.72 3.59L5.92 11.45L1.46 9.93C1.46 9.93 1.02 9.68 0.99 9.51C1.02 9.48 1.09 9.38 1.16 9.33C1.31 9.23 1.47 9.17 1.47 9.17C1.47 9.17 6.06 7.2 10.7 5.22C13.02 4.22 15.36 3.22 17.15 2.45C18.95 1.69 20.25 1.13 20.36 1.09C20.49 1.04 20.61 1.02 20.71 1.01ZM15.3 6.4L9.12 13.68C9.11 13.69 9.07 13.74 9.06 13.76C9.02 13.82 9 13.88 8.99 13.95L8.19 17.58C8.17 17.54 8.16 17.52 8.15 17.48C7.89 16.65 6.73 12.76 6.57 12.22L15.3 6.4ZM9.81 14.87L10.93 15.7L9.29 17.22L9.81 14.87Z" fill="#FFFFFF" fill-opacity="1.000000" fill-rule="nonzero"/>
</svg>
