<svg width="25.003174" height="25.002930" viewBox="0 0 25.0032 25.0029" fill="none" xmlns="http://www.w3.org/2000/svg" xmlns:xlink="http://www.w3.org/1999/xlink">
	<desc>
			Created with Pixso.
	</desc>
	<defs/>
	<path id="path" d="M12.5 0C5.6 0 0 5.6 0 12.5C0 14.71 0.61 16.78 1.62 18.59L0.02 24.31C-0.04 24.51 0.01 24.68 0.15 24.83C0.3 24.98 0.47 25.03 0.67 24.98L6.63 23.5C8.39 24.44 10.37 25 12.5 25C19.4 25 25 19.39 25 12.5C25 5.6 19.4 0 12.5 0ZM12.5 1.08C18.81 1.08 23.91 6.19 23.91 12.5C23.91 18.8 18.81 23.91 12.5 23.91C10.48 23.91 8.58 23.38 6.93 22.46C6.81 22.39 6.68 22.37 6.54 22.41L1.32 23.7L2.72 18.7C2.76 18.56 2.74 18.41 2.66 18.28C1.66 16.58 1.09 14.61 1.09 12.5C1.09 6.19 6.19 1.08 12.5 1.08ZM7.96 5.97C7.61 5.97 7.11 6.1 6.7 6.54C6.46 6.81 5.43 7.8 5.43 9.56C5.43 11.38 6.7 12.96 6.85 13.16C6.84 13.14 7.05 13.45 7.33 13.81C7.61 14.17 8 14.65 8.49 15.17C9.47 16.2 10.85 17.39 12.56 18.12C13.34 18.46 13.96 18.66 14.44 18.81C15.31 19.08 16.1 19.04 16.7 18.95C17.15 18.88 17.64 18.67 18.12 18.36C18.61 18.05 19.09 17.67 19.3 17.09C19.45 16.67 19.52 16.29 19.55 15.97C19.57 15.81 19.57 15.67 19.56 15.54C19.55 15.41 19.56 15.31 19.44 15.12C19.18 14.7 18.9 14.69 18.6 14.54C18.43 14.46 17.96 14.23 17.49 14C17.01 13.78 16.6 13.58 16.35 13.49C16.19 13.43 15.99 13.35 15.71 13.38C15.43 13.41 15.15 13.61 14.99 13.85C14.84 14.08 14.22 14.81 14.03 15.02C14.03 15.02 14.05 15.03 13.97 14.99C13.74 14.88 13.46 14.78 13.03 14.56C12.61 14.34 12.09 14.01 11.51 13.5C10.65 12.74 10.05 11.79 9.86 11.48C10.06 11.29 10.25 11.03 10.4 10.87C10.6 10.63 10.7 10.42 10.79 10.22C10.99 9.84 10.88 9.41 10.77 9.18C10.77 9.2 10.71 9.04 10.63 8.87C10.56 8.69 10.46 8.46 10.36 8.22C10.16 7.73 9.93 7.18 9.79 6.86C9.63 6.48 9.42 6.21 9.14 6.08C8.86 5.95 8.61 5.99 8.6 5.98C8.4 5.98 8.17 5.97 7.96 5.97ZM7.96 7.06C8.17 7.06 8.37 7.06 8.55 7.07C8.72 7.08 8.71 7.08 8.68 7.06C8.64 7.05 8.69 7.04 8.79 7.28C8.92 7.6 9.15 8.15 9.36 8.64C9.46 8.88 9.55 9.11 9.63 9.29C9.71 9.47 9.75 9.57 9.8 9.67C9.84 9.76 9.84 9.7 9.82 9.74C9.71 9.96 9.69 10.02 9.58 10.15C9.4 10.36 9.22 10.58 9.12 10.68C9.04 10.76 8.89 10.89 8.8 11.14C8.7 11.39 8.75 11.73 8.9 11.99C9.1 12.33 9.76 13.41 10.79 14.31C11.44 14.89 12.04 15.26 12.53 15.52C13.01 15.77 13.4 15.92 13.49 15.97C13.7 16.07 13.93 16.15 14.19 16.12C14.46 16.09 14.69 15.92 14.83 15.76C15.03 15.54 15.6 14.88 15.88 14.48C15.89 14.48 15.89 14.48 15.98 14.51C16.02 14.52 16.55 14.76 17.02 14.98C17.49 15.21 17.96 15.44 18.12 15.52C18.34 15.63 18.45 15.7 18.47 15.7C18.47 15.75 18.48 15.8 18.47 15.88C18.45 16.1 18.39 16.4 18.27 16.72C18.22 16.88 17.92 17.21 17.54 17.44C17.17 17.68 16.71 17.85 16.54 17.87C16.03 17.95 15.43 17.98 14.76 17.77C14.3 17.62 13.73 17.44 12.98 17.12C11.47 16.48 10.19 15.38 9.28 14.42C8.82 13.94 8.45 13.49 8.19 13.15C7.93 12.81 7.82 12.63 7.72 12.51C7.55 12.28 6.52 10.85 6.52 9.56C6.52 8.19 7.15 7.65 7.5 7.28C7.68 7.09 7.88 7.06 7.96 7.06Z" fill="#FFFFFF" fill-opacity="1.000000" fill-rule="nonzero"/>
</svg>
