<svg width="12.673828" height="12.694336" viewBox="0 0 12.6738 12.6943" fill="none" xmlns="http://www.w3.org/2000/svg" xmlns:xlink="http://www.w3.org/1999/xlink">
	<desc>
			Created with Pixso.
	</desc>
	<defs/>
	<path id="􀌿" d="M3.47266 9.19434C5.44824 11.1699 7.84766 12.6943 9.80957 12.6943C10.6914 12.6943 11.4639 12.3867 12.0859 11.7031C12.4482 11.2998 12.6738 10.8281 12.6738 10.3633C12.6738 10.0215 12.5439 9.69336 12.2227 9.46094L10.124 7.9707C9.80273 7.75195 9.53613 7.64258 9.29004 7.64258C8.98242 7.64258 8.70215 7.82031 8.3877 8.12793L7.90234 8.60645C7.82715 8.68164 7.73145 8.71582 7.64258 8.71582C7.54004 8.71582 7.4375 8.6748 7.36914 8.64062C6.94531 8.41504 6.2207 7.79297 5.54395 7.12305C4.87402 6.45312 4.25195 5.72852 4.0332 5.30469C3.99902 5.22949 3.95801 5.13379 3.95801 5.03125C3.95801 4.94238 3.98535 4.85352 4.06055 4.77832L4.5459 4.2793C4.84668 3.96484 5.03125 3.69141 5.03125 3.37695C5.03125 3.13086 4.91504 2.86426 4.68945 2.54297L3.21973 0.47168C2.98047 0.143555 2.64551 0 2.27637 0C1.8252 0 1.36035 0.205078 0.957031 0.594727C0.293945 1.23047 0 2.0166 0 2.88477C0 4.84668 1.49707 7.22559 3.47266 9.19434Z" fill="#FFFFFF" fill-opacity="1.000000" fill-rule="evenodd"/>
</svg>
