<svg width="17.000000" height="10.000000" viewBox="0 0 17 10" fill="none" xmlns="http://www.w3.org/2000/svg" xmlns:xlink="http://www.w3.org/1999/xlink">
	<desc>
			Created with Pixso.
	</desc>
	<defs/>
	<path id="VK" d="M14.631 6.3584C15.1948 6.93066 15.79 7.46924 16.2958 8.09912C16.5192 8.37915 16.7307 8.66797 16.8926 8.99292C17.1218 9.45483 16.9142 9.96313 16.5157 9.99048L14.0392 9.9895C13.4004 10.0444 12.8909 9.77734 12.4624 9.32324C12.1195 8.96021 11.8019 8.57397 11.4722 8.19849C11.337 8.04517 11.1956 7.90088 11.0265 7.78687C10.6885 7.55859 10.395 7.62842 10.2018 7.99512C10.005 8.36792 9.96045 8.78052 9.94104 9.19604C9.91455 9.80225 9.73828 9.96167 9.15247 9.98926C7.90051 10.0508 6.7124 9.85376 5.60864 9.19751C4.6355 8.61865 3.88086 7.80176 3.22412 6.87671C1.94531 5.07568 0.966064 3.09668 0.0858154 1.06226C-0.112305 0.60376 0.0325928 0.357666 0.519165 0.349121C1.32715 0.332764 2.13501 0.333984 2.94385 0.3479C3.27222 0.352783 3.48962 0.548584 3.61633 0.871094C4.05347 1.98828 4.58838 3.05127 5.25977 4.03662C5.4386 4.29883 5.62085 4.56104 5.88049 4.74585C6.16772 4.9502 6.38635 4.88232 6.52148 4.5498C6.60718 4.33911 6.64478 4.11182 6.66406 3.88599C6.72803 3.10913 6.73645 2.33325 6.62427 1.55908C6.5553 1.07593 6.29346 0.763184 5.82959 0.671631C5.5929 0.625 5.62817 0.533447 5.74268 0.393066C5.94177 0.150879 6.12903 0 6.5022 0L9.30115 0C9.74182 0.090332 9.83972 0.296143 9.90002 0.75708L9.90247 3.98877C9.89758 4.16724 9.98816 4.69653 10.2974 4.8147C10.5448 4.89868 10.7079 4.69287 10.8563 4.52979C11.5265 3.79053 12.0048 2.91675 12.432 2.01221C12.6217 1.61426 12.7847 1.20117 12.9427 0.78833C13.0598 0.482178 13.2435 0.331299 13.5754 0.338135L16.2693 0.340576C16.3491 0.340576 16.4299 0.341797 16.5073 0.355469C16.9613 0.435791 17.0857 0.638916 16.9454 1.09961C16.7245 1.82251 16.2947 2.42505 15.8745 3.03003C15.4253 3.67627 14.9448 4.30029 14.4993 4.9502C14.09 5.5437 14.1224 5.84302 14.631 6.3584Z" fill="#FFFFFF" fill-opacity="1.000000" fill-rule="nonzero"/>
	<path id="VK" d="" fill="#FFFFFF" fill-opacity="0" fill-rule="evenodd"/>
</svg>
